<svg xmlns="http://www.w3.org/2000/svg" viewBox="0 0 800 500" width="800" height="500">
  <defs>
    <linearGradient id="g" x1="0" y1="0" x2="1" y2="1">
      <stop offset="0" stop-color="#10b981"/>
      <stop offset="1" stop-color="#047857"/>
    </linearGradient>
  </defs>
  <rect width="800" height="500" fill="url(#g)"/>
  <g transform="translate(292,92) scale(9)" fill="none" stroke="#ffffff" stroke-width="2" stroke-linecap="round" stroke-linejoin="round" opacity="0.28">
    <path d="M6 19m-2 0a2 2 0 1 0 4 0a2 2 0 1 0 -4 0"/>
    <path d="M17 19m-2 0a2 2 0 1 0 4 0a2 2 0 1 0 -4 0"/>
    <path d="M17 17h-11v-14h-2M6 5l14 1l-1 7h-13"/>
  </g>
  <text x="400" y="360" text-anchor="middle" font-family="ui-sans-serif,system-ui,Arial,sans-serif" font-size="22" fill="#ffffff" opacity="0.85">Feni E-mart Super Shop</text>
  <text x="400" y="410" text-anchor="middle" font-family="ui-sans-serif,system-ui,Arial,sans-serif" font-weight="700" font-size="44" fill="#ffffff">POS System</text>
</svg>
